<?xml version="1.0" encoding="utf-8"?>
<!-- Generator: Adobe Illustrator 27.0.0, SVG Export Plug-In . SVG Version: 6.00 Build 0)  -->
<svg version="1.1" id="Layer_1" xmlns="http://www.w3.org/2000/svg" xmlns:xlink="http://www.w3.org/1999/xlink" x="0px" y="0px"
	 viewBox="0 0 185 185" style="enable-background:new 0 0 185 185;" xml:space="preserve">
<style type="text/css">
	.st0{fill:url(#SVGID_1_);}
	.st1{fill:#FFFFFF;}
</style>
<linearGradient id="SVGID_1_" gradientUnits="userSpaceOnUse" x1="32.1374" y1="152.8626" x2="152.8626" y2="32.1374">
	<stop  offset="0" style="stop-color:#FFF33B"/>
	<stop  offset="5.948725e-02" style="stop-color:#FFE029"/>
	<stop  offset="0.1303" style="stop-color:#FFD217"/>
	<stop  offset="0.2032" style="stop-color:#FEC90E"/>
	<stop  offset="0.2809" style="stop-color:#FDC70C"/>
	<stop  offset="0.6685" style="stop-color:#F3903F"/>
	<stop  offset="0.8876" style="stop-color:#ED683C"/>
	<stop  offset="1" style="stop-color:#E93E3A"/>
</linearGradient>
<circle class="st0" cx="92.5" cy="92.5" r="85.4"/>
<g>
	<path class="st1" d="M101.6,109.8v-3.6c5.6-2.9,9.5-8.4,10.2-15c3.2-0.6,5.7-3.4,5.7-6.8c0-1.7-0.6-3.3-1.7-4.5c0,0,0-0.1,0-0.1
		v-7.3c0-12.6-10.3-22.9-22.9-22.9c-4.8,0-9.4,1.5-13.3,4.3c-0.6,0.4-0.7,1.2-0.3,1.8c0.4,0.6,1.2,0.7,1.8,0.3
		c3.4-2.5,7.5-3.8,11.8-3.8c7.9,0,14.8,4.6,18.1,11.2c0,0.1-0.1,0.1-0.1,0.2c-0.9,3.1-2.2,5.8-3.7,8.2c-1-1-2.2-2.3-3.3-4
		c-0.2-0.3-0.6-0.5-0.9-0.6c-0.4,0-0.8,0.1-1,0.3c0,0-2,1.9-6.3,3.7c-4,1.6-10.7,3.6-20.6,3.3c-0.3,0-0.7,0.1-0.9,0.4
		c-0.3,0.2-0.4,0.6-0.4,0.9v1.8c-0.4,0.1-0.7,0.2-1.1,0.3v-5.5c0-4.4,1.4-8.6,4-12.1l0.1-0.1c0.1-0.1,0.1-0.1,0.2-0.2
		c0.4-0.6,0.4-1.4-0.2-1.8c-0.6-0.4-1.4-0.4-1.8,0.2c-0.1,0.2-0.2,0.2-0.2,0.3l-0.1,0.1c-3,4-4.5,8.7-4.5,13.6v6.8
		c0,0.1,0,0.2,0,0.3c-1.2,1.2-2,2.9-2,4.8c0,3.4,2.5,6.2,5.7,6.8c0.6,6.3,4.4,11.7,9.6,14.7c0,0.1,0,0.2,0,0.3v3.6
		c-2.2,0.5-7.5,1.8-12.9,4c-9.6,4-14.5,8.8-14.5,14.4v5.3c0,0.7,0.6,1.3,1.3,1.3h50.2c0.7,0,1.3-0.6,1.3-1.3s-0.6-1.3-1.3-1.3H58.7
		v-4c0-8.8,18.1-14.4,25.8-16l7,7.2c0.2,0.3,0.6,0.4,0.9,0.4s0.7-0.1,0.9-0.4l7-7.2c7.6,1.5,25.9,7.1,25.9,16v4h-11.2
		c-0.7,0-1.3,0.6-1.3,1.3s0.6,1.3,1.3,1.3h12.5c0.7,0,1.3-0.6,1.3-1.3v-5.3C128.9,116.5,106.8,110.9,101.6,109.8z M111.8,88.6v-8.2
		c1.7,0.6,3,2.2,3,4.1C114.8,86.4,113.6,88,111.8,88.6z M112.5,67.2c0.5,1.7,0.7,3.5,0.7,5.3V78c-0.4-0.2-0.9-0.3-1.4-0.4v-1.8
		c0-0.5-0.3-1-0.8-1.2c0,0-0.8-0.3-1.9-1.2C110.4,71.7,111.5,69.6,112.5,67.2z M76.3,77.2c15.2,0.1,23.4-4.7,26.2-6.8
		c1.1,1.4,2.1,2.6,3.1,3.5c-1.9,2.3-4.1,4.3-6.7,5.9c-3.2,1.9-5.1,2.7-6.4,3.1v-3c0-0.7-0.6-1.3-1.3-1.3H80.5
		c-0.7,0-1.3,0.6-1.3,1.3v6.4c-0.3,0.4-1.8,0.5-2.9,0.7V77.2z M89.9,81.2v6.2c0,1.1-0.4,2.2-1.2,2.9c-0.8,0.8-1.9,1.2-3,1.1
		c-2.1-0.1-3.9-2-3.9-4.2v-6H89.9z M70.7,84.4c0-1.9,1.3-3.6,3-4.1v8.2C72,88,70.7,86.4,70.7,84.4z M76.3,89.6
		c0.8-0.1,2.5-0.3,3.1-0.6c0.7,2.8,3.1,4.9,6.1,5.1c0.1,0,0.2,0,0.3,0c1.7,0,3.3-0.6,4.6-1.8c1.3-1.3,2.1-3,2.1-4.8v-1.8
		c1.3-0.2,3.8-1.1,7.7-3.4c2.3-1.4,5-3.5,7.5-6.5c0.6,0.5,1.2,0.8,1.6,1v12.7c0,9.1-7.4,16.4-16.4,16.4
		C83.8,105.7,76.5,98.5,76.3,89.6z M92.4,116.6l-6.4-6.6v-3c2.1,0.8,4.4,1.2,6.7,1.2c2.2,0,4.2-0.4,6.2-1v2.6c0,0-0.1,0.1-0.1,0.1
		L92.4,116.6z"/>
</g>
</svg>
